PathFileType	4	(X/Y/Z)	walk-thru1-2-TP.trc
DataRate	CameraRate	NumFrames	NumMarkers	Units	OrigDataRate	OrigDataStartFrame	OrigNumFrames
120.00	120.00	       4	60	mm	120.00	440	       502
Frame#	Time	Top.Head			Front.Head			Rear.Head			Jaw			C7			R.Clavicle			L.Clavicle			R.Shoulder			L.Shoulder			R.Scapula			L.Scapula			R.Scap.Inf			R.Biceps.Lateral			R.Elbow			R.Elbow.Medial			R.Forearm			R.Ulna			R.Radius			R.Wrist			R.Thumb.M1			R.Thumb.M2			R.Thumb.M3			R.Finger3.M1			R.Finger3.M2			R.Finger3.M3			L.Biceps.Lateral			L.Elbow			L.Elbow.Medial			L.Forearm			L.Ulna			L.Radius			L.Wrist			L.Thumb.M1			L.Thumb.M2			L.Thumb.M3			L.Finger3.M1			L.Finger3.M2			L.Finger3.M3			V.Sacral			R.ASIS			L.ASIS			R.Thigh			R.Thigh.Front			R.Knee			R.Knee.Medial			R.Shank			R.Ankle			R.Ankle.Medial			R.Heel			R.Toe			R.MedFoot			L.Thigh			L.Knee			L.Knee.Medial			L.Shank			L.Ankle			L.Ankle.Medial			L.Heel			L.Toe			L.MedFoot			V_mid_ASIS			V_R_Knee_JC			V_L_Knee_JC			V_R_Elbow_JC			V_L_Elbow_JC			V_R_Ankle_JC			V_L_Ankle_JC			V_R_Wrist_JC			V_L_Wrist_JC			V_R_ScaTrpz_1stMC_JC			V_R_1stMC_1stPP_JC			V_R_1stPP_1stDP_JC			V_R_LunCap_3rdMC_JC			V_R_3rdMC_3rdPP_JC			V_R_3rdPP_3rdMP_JC			V_R_3rdMP_3rdDP_JC			V_L_ScaTrpz_1stMC_JC			V_L_1stMC_1stPP_JC			V_L_1stPP_1stDP_JC			V_L_LunCap_3rdMC_JC			V_L_3rdMC_3rdPP_JC			V_L_3rdPP_3rdMP_JC			V_L_3rdMP_3rdPP_JC			V_ROOT_JC			V_R_Hip_JC			V_L_Hip_JC			V_R_GlenHum_JC			V_L_GlenHum_JC			V_ForeHead_Ctr			V_Vertex			V_Sagit_Lambdoid_Suture			V_R_FrontoTemp			V_L_FrontoTemporal			V_R_ParietalOccip			V_L_ParietalOcciptal			V_R_Temporal			V_L_Temporal			V_mid_FrontRearHead			V_mid_RLGlenHumCtrs			V_C7_vert			V_C1_vert			V_Mid_Hip			
		X1	Y1	Z1	X2	Y2	Z2	X3	Y3	Z3	X4	Y4	Z4	X5	Y5	Z5	X6	Y6	Z6	X7	Y7	Z7	X8	Y8	Z8	X9	Y9	Z9	X10	Y10	Z10	X11	Y11	Z11	X12	Y12	Z12	X13	Y13	Z13	X14	Y14	Z14	X15	Y15	Z15	X16	Y16	Z16	X17	Y17	Z17	X18	Y18	Z18	X19	Y19	Z19	X20	Y20	Z20	X21	Y21	Z21	X22	Y22	Z22	X23	Y23	Z23	X24	Y24	Z24	X25	Y25	Z25	X26	Y26	Z26	X27	Y27	Z27	X28	Y28	Z28	X29	Y29	Z29	X30	Y30	Z30	X31	Y31	Z31	X32	Y32	Z32	X33	Y33	Z33	X34	Y34	Z34	X35	Y35	Z35	X36	Y36	Z36	X37	Y37	Z37	X38	Y38	Z38	X39	Y39	Z39	X40	Y40	Z40	X41	Y41	Z41	X42	Y42	Z42	X43	Y43	Z43	X44	Y44	Z44	X45	Y45	Z45	X46	Y46	Z46	X47	Y47	Z47	X48	Y48	Z48	X49	Y49	Z49	X50	Y50	Z50	X51	Y51	Z51	X52	Y52	Z52	X53	Y53	Z53	X54	Y54	Z54	X55	Y55	Z55	X56	Y56	Z56	X57	Y57	Z57	X58	Y58	Z58	X59	Y59	Z59	X60	Y60	Z60	

440	3.658	1656.06738	105.79091	1778.31763	1764.22485	72.92885	1669.76587	1533.35791	110.31145	1691.46045	1690.58362	67.04405	1487.08789	1448.38501	86.12993	1568.24670	1553.01099	-37.06710	1498.95850	1557.36108	205.89494	1478.21729	1505.71667	-146.25244	1492.34131	1509.95874	310.00150	1472.72717	1389.46912	-18.28534	1483.20581	1384.45398	177.41681	1468.58264	1360.01001	-23.38857	1392.35193	1468.25781	-184.28676	1354.01453	1411.51245	-223.29459	1172.93262	1410.38220	-122.89325	1160.35364	1503.71118	-210.95094	1106.55481	1445.96570	-227.33734	972.22321	1556.57629	-208.66814	939.75018	1564.39209	-254.24983	913.56329	1573.35559	-201.50526	892.75824	1567.87549	-174.50551	845.80267	1560.72363	-179.03058	793.44824	1579.57104	-268.90295	830.70953	1536.28333	-234.34109	770.26422	1504.15820	-191.99135	803.90594	1453.23145	334.60703	1327.84045	1385.33203	345.02496	1159.37280	1376.08777	249.80083	1137.24060	1465.16211	344.48981	1074.75415	1402.23450	364.61639	972.72876	1497.43726	343.58939	913.65851	1473.58057	383.85895	879.35907	1518.30103	342.20175	857.18262	1535.01611	315.65964	812.50262	1541.31824	318.20618	761.81415	1494.18469	393.14917	780.89453	1494.38208	360.61365	723.20508	1486.18506	301.44043	724.83582	1340.52917	73.10340	1116.80933	1530.54065	-120.00486	1059.57983	1534.26025	229.61311	1060.83398	1518.98352	-121.84335	676.48303	1597.90710	-54.65156	559.51990	1532.37427	-106.41266	509.46439	1539.69385	10.88644	505.31787	1426.07642	-69.75010	313.68637	1216.61169	-92.33207	180.87000	1253.57910	4.04350	182.01645	1151.36279	-36.41257	184.05533	1322.86511	-56.66745	51.20047	1308.60815	-25.64428	110.41539	1550.75183	227.16327	674.24542	1574.84729	198.87666	534.76727	1566.69641	90.17164	517.58026	1584.98120	151.37497	326.12961	1481.22559	156.84642	79.53897	1532.61377	68.32192	111.13879	1445.30774	85.28062	47.35672	1662.44678	160.68088	41.95852	1601.70703	113.45881	84.57652																																																																																																																															
441	3.667	1662.14172	106.47482	1778.76575	1769.95154	72.76864	1669.95728	1537.37219	112.69331	1693.08337	1696.32397	67.66148	1487.31201	1454.63794	86.75207	1569.20300	1558.63245	-36.26031	1499.58777	1563.26489	206.08386	1478.22693	1509.98584	-144.90308	1493.17261	1517.73621	311.05695	1473.77563	1395.13110	-17.53621	1483.02795	1390.39063	178.21150	1469.29919	1365.42920	-23.33934	1392.64868	1473.35095	-183.57599	1354.18713	1416.44568	-222.39380	1173.22021	1412.68958	-124.23842	1159.47791	1508.00745	-212.23523	1106.37305	1448.62000	-226.94635	971.90356	1559.24475	-208.13933	940.61737	1567.58337	-254.07820	913.25684	1576.54614	-201.40623	895.21912	1569.88635	-171.74777	848.11359	1561.42017	-171.75929	795.98181	1581.40979	-265.71362	829.31140	1537.96448	-230.70549	770.53729	1506.99036	-183.33643	804.63519	1461.87195	337.20029	1328.14624	1394.01306	348.25922	1159.33325	1382.10938	253.35085	1138.19751	1474.29822	345.97272	1075.23914	1411.09131	368.47928	973.97107	1506.66895	345.34189	913.88519	1483.46912	386.61639	880.00330	1526.83350	343.56287	857.95435	1542.56104	317.09009	812.41077	1550.62085	318.29333	763.28943	1506.27417	395.62619	780.80591	1504.34534	362.87128	723.76044	1495.92761	303.64587	726.15643	1345.92517	74.31385	1116.87805	1535.24048	-118.29420	1059.55432	1540.47937	230.95610	1061.42456	1528.46509	-121.20586	676.51563	1609.65613	-54.24679	561.24500	1544.87231	-106.33549	510.25488	1551.96924	11.60188	506.04214	1435.98462	-68.02481	316.29263	1227.12305	-91.32633	184.50806	1265.13269	3.86972	184.98132	1161.61914	-35.59591	187.29622	1333.98767	-58.68247	55.54412	1319.49939	-26.44387	112.79777	1554.08521	227.51436	674.22046	1578.80042	199.69684	534.59747	1567.85242	90.52371	516.72900	1585.76270	152.28470	325.71463	1480.27258	157.20544	78.88373	1532.84424	68.28568	111.11571	1445.30774	85.28062	47.35672	1662.44702	160.73581	41.86410	1601.70703	113.45881	84.57652																																																																																																																															
442	3.675	1668.15430	106.84409	1779.21082	1776.06409	73.26685	1670.20972	1543.94910	112.32716	1692.99670	1701.95227	68.78471	1487.82593	1459.64294	87.74007	1568.16187	1563.84082	-36.09919	1499.55469	1569.23755	206.99245	1478.27734	1515.79578	-144.01790	1493.11670	1524.13562	312.11035	1473.47961	1400.27124	-16.24236	1483.86438	1396.01758	181.30447	1469.47559	1370.14795	-22.23595	1392.72974	1478.10730	-183.41621	1353.65857	1420.94421	-221.52716	1173.77405	1419.89014	-122.15073	1159.86047	1510.69556	-213.68106	1106.99463	1453.47717	-225.58080	972.45947	1561.82861	-208.39755	940.96301	1570.10339	-254.37637	913.38098	1578.91553	-200.17139	896.26740	1573.29553	-170.22980	851.48016	1564.17700	-167.84692	798.08582	1583.88416	-262.83063	828.15405	1540.61804	-222.71236	771.96814	1506.37610	-182.57874	807.16296	1467.38977	338.04230	1328.38562	1400.93835	351.68253	1159.50903	1387.44946	256.00412	1137.43372	1482.82715	348.47025	1075.84680	1420.03027	370.92972	973.36932	1515.65271	347.86627	914.47217	1493.51147	389.74500	881.86224	1535.62585	345.28088	858.52234	1552.20361	319.17917	814.64819	1559.59106	320.32867	764.19287	1515.32690	397.47525	781.98608	1512.97827	365.08502	724.62292	1504.43823	305.75110	726.76422	1350.28857	75.49875	1117.50757	1541.28564	-117.68201	1060.34399	1545.31250	231.77435	1061.67676	1539.30029	-120.67871	677.99908	1621.48792	-53.20006	563.43542	1557.60376	-105.31402	512.54694	1561.91968	10.85418	508.04633	1447.16919	-67.49458	317.80127	1238.22620	-91.46453	187.64230	1276.08386	4.08738	187.10812	1172.52588	-35.76930	190.08958	1343.19043	-60.19686	57.59994	1330.06274	-28.66136	115.41196	1556.40076	228.28693	674.29498	1580.07947	200.24487	534.46075	1568.76282	90.69311	516.64783	1586.66956	152.58292	324.72421	1481.22168	156.71710	79.17831	1532.95337	68.37617	111.02919	1445.68542	84.84634	47.53203	1663.02246	160.66785	41.56924	1601.98218	113.15831	84.81651																																																																																																																															
443	3.683	1673.96948	108.02131	1778.70557	1781.46924	73.69512	1669.63940	1549.48865	117.22668	1693.81909	1707.92175	67.67072	1487.21741	1467.07703	88.06816	1570.67444	1568.61218	-34.78596	1499.61133	1575.11194	207.39169	1478.51611	1520.39148	-143.26128	1493.02783	1530.85779	313.14182	1474.51025	1405.56152	-15.38266	1483.70215	1401.04858	182.14409	1469.04150	1375.47974	-20.25504	1393.12732	1483.32373	-181.12965	1354.30212	1419.95154	-219.95834	1173.53528	1418.71985	-119.29810	1159.45911	1513.75269	-213.40677	1107.30286	1455.80347	-225.62683	971.95709	1566.23572	-209.32187	941.25543	1573.23523	-253.91635	912.68921	1581.17590	-199.27850	897.50500	1577.00476	-168.72392	853.47937	1569.56067	-160.95137	805.35840	1586.10645	-259.80560	827.89148	1544.50757	-215.26505	773.56677	1514.19629	-174.48676	810.81995	1476.51453	339.99258	1328.53125	1409.50610	353.93420	1159.86646	1393.31421	258.27734	1137.12842	1490.13306	349.43399	1077.03796	1428.68921	374.39737	974.16949	1523.91064	350.06015	915.80017	1502.52466	392.01135	882.42896	1545.19299	347.01852	860.50653	1558.90479	320.21207	814.63104	1567.99182	321.29315	766.05157	1525.45227	399.31180	782.22925	1521.41296	366.43790	724.75641	1513.16541	306.55228	726.28857	1355.61267	76.42673	1117.60010	1545.78857	-116.57246	1060.25623	1550.00317	232.86664	1061.55945	1547.90161	-119.58698	679.26691	1632.65540	-52.53174	565.93158	1568.80444	-105.30177	513.42877	1573.66443	11.55096	511.67523	1459.95386	-66.52498	319.95166	1249.79675	-90.90926	190.18387	1287.30286	4.41696	188.97670	1184.25183	-35.58149	192.70201	1355.65698	-61.95994	59.62506	1342.36035	-29.70414	117.87063	1560.08789	227.39423	673.98718	1582.05554	200.16283	533.69464	1573.38940	91.65798	517.12408	1587.82544	153.03992	324.62997	1480.37207	157.19115	78.73858	1532.97168	68.32461	110.99531	1444.82568	85.86359	48.19023	1662.45459	160.72289	42.34367	1601.73376	113.33366	84.57776																																																																																																																															
